<?xml version="1.0" standalone="no"?>
<!DOCTYPE svg PUBLIC "-//W3C//DTD SVG 20010904//EN"
 "http://www.w3.org/TR/2001/REC-SVG-20010904/DTD/svg10.dtd">
<svg version="1.0" xmlns="http://www.w3.org/2000/svg"
 width="507.000000pt" height="492.000000pt" viewBox="0 0 507.000000 492.000000"
 preserveAspectRatio="xMidYMid meet">

<g transform="translate(0.000000,492.000000) scale(0.100000,-0.100000)"
fill="#000000" stroke="none">
<path d="M1276 4909 c-479 -46 -887 -318 -1110 -741 -123 -233 -180 -509 -156
-757 26 -263 95 -458 242 -679 67 -99 150 -185 1172 -1209 605 -607 1105
-1103 1111 -1103 6 0 502 492 1101 1092 1018 1019 1137 1144 1218 1272 259
410 279 951 50 1385 -382 724 -1294 964 -1984 523 -80 -51 -183 -138 -285
-241 -49 -50 -94 -91 -99 -91 -5 0 -64 53 -130 118 -148 144 -229 205 -367
277 -235 122 -512 178 -763 154z m404 -99 c298 -73 482 -184 739 -444 l115
-115 151 148 c250 244 445 355 736 418 117 25 390 25 508 0 531 -114 919 -501
1037 -1033 23 -108 29 -340 11 -460 -32 -202 -125 -428 -244 -586 -53 -70
-2183 -2218 -2199 -2218 -4 0 -484 478 -1066 1063 -659 661 -1084 1094 -1124
1147 -125 164 -219 387 -250 594 -19 121 -14 354 10 460 124 552 539 950 1086
1041 123 21 378 13 490 -15z"/>
</g>
</svg>
